<svg width="121" height="30" viewBox="0 0 121 30" fill="none" xmlns="http://www.w3.org/2000/svg">
<path d="M6.15625 0.25L12 16.75L17.8125 0.25H23.9688V23H19.2656V16.7812L19.7344 6.04688L13.5938 23H10.375L4.25 6.0625L4.71875 16.7812V23H0.03125V0.25H6.15625ZM34.0781 16.6094L37.2031 6.09375H42.0469L35.25 25.625L34.875 26.5156C33.8646 28.724 32.1979 29.8281 29.875 29.8281C29.2188 29.8281 28.5521 29.7292 27.875 29.5312V26.1094L28.5625 26.125C29.4167 26.125 30.0521 25.9948 30.4688 25.7344C30.8958 25.474 31.2292 25.0417 31.4688 24.4375L32 23.0469L26.0781 6.09375H30.9375L34.0781 16.6094ZM56.7812 19.2344H66.7344V23H52.0938V0.25H56.7812V19.2344ZM68.4375 14.3906C68.4375 12.7135 68.7604 11.2188 69.4062 9.90625C70.0521 8.59375 70.9792 7.57812 72.1875 6.85938C73.4062 6.14062 74.8177 5.78125 76.4219 5.78125C78.7031 5.78125 80.5625 6.47917 82 7.875C83.4479 9.27083 84.2552 11.1667 84.4219 13.5625L84.4531 14.7188C84.4531 17.3125 83.7292 19.3958 82.2812 20.9688C80.8333 22.5312 78.8906 23.3125 76.4531 23.3125C74.0156 23.3125 72.0677 22.5312 70.6094 20.9688C69.1615 19.4062 68.4375 17.2812 68.4375 14.5938V14.3906ZM72.9531 14.7188C72.9531 16.3229 73.2552 17.5521 73.8594 18.4062C74.4635 19.25 75.3281 19.6719 76.4531 19.6719C77.5469 19.6719 78.401 19.2552 79.0156 18.4219C79.6302 17.5781 79.9375 16.2344 79.9375 14.3906C79.9375 12.8177 79.6302 11.599 79.0156 10.7344C78.401 9.86979 77.5365 9.4375 76.4219 9.4375C75.3177 9.4375 74.4635 9.86979 73.8594 10.7344C73.2552 11.5885 72.9531 12.9167 72.9531 14.7188ZM86.5781 14.4219C86.5781 11.8281 87.1927 9.73958 88.4219 8.15625C89.6615 6.57292 91.3281 5.78125 93.4219 5.78125C95.276 5.78125 96.7188 6.41667 97.75 7.6875L97.9375 6.09375H102.031V22.4375C102.031 23.9167 101.693 25.2031 101.016 26.2969C100.349 27.3906 99.4062 28.224 98.1875 28.7969C96.9688 29.3698 95.5417 29.6562 93.9062 29.6562C92.6667 29.6562 91.4583 29.4062 90.2812 28.9062C89.1042 28.4167 88.2135 27.7812 87.6094 27L89.6094 24.25C90.7344 25.5104 92.099 26.1406 93.7031 26.1406C94.901 26.1406 95.8333 25.8177 96.5 25.1719C97.1667 24.5365 97.5 23.6302 97.5 22.4531V21.5469C96.4583 22.724 95.0885 23.3125 93.3906 23.3125C91.3594 23.3125 89.7135 22.5208 88.4531 20.9375C87.2031 19.3438 86.5781 17.2344 86.5781 14.6094V14.4219ZM91.0938 14.75C91.0938 16.2812 91.401 17.4844 92.0156 18.3594C92.6302 19.224 93.474 19.6562 94.5469 19.6562C95.9219 19.6562 96.9062 19.1406 97.5 18.1094V11C96.8958 9.96875 95.9219 9.45312 94.5781 9.45312C93.4948 9.45312 92.6406 9.89583 92.0156 10.7812C91.401 11.6667 91.0938 12.9896 91.0938 14.75ZM104.812 14.3906C104.812 12.7135 105.135 11.2188 105.781 9.90625C106.427 8.59375 107.354 7.57812 108.562 6.85938C109.781 6.14062 111.193 5.78125 112.797 5.78125C115.078 5.78125 116.938 6.47917 118.375 7.875C119.823 9.27083 120.63 11.1667 120.797 13.5625L120.828 14.7188C120.828 17.3125 120.104 19.3958 118.656 20.9688C117.208 22.5312 115.266 23.3125 112.828 23.3125C110.391 23.3125 108.443 22.5312 106.984 20.9688C105.536 19.4062 104.812 17.2812 104.812 14.5938V14.3906ZM109.328 14.7188C109.328 16.3229 109.63 17.5521 110.234 18.4062C110.839 19.25 111.703 19.6719 112.828 19.6719C113.922 19.6719 114.776 19.2552 115.391 18.4219C116.005 17.5781 116.312 16.2344 116.312 14.3906C116.312 12.8177 116.005 11.599 115.391 10.7344C114.776 9.86979 113.911 9.4375 112.797 9.4375C111.693 9.4375 110.839 9.86979 110.234 10.7344C109.63 11.5885 109.328 12.9167 109.328 14.7188Z" fill="#6A0B0B"/>
</svg>
